# xmcd
#
# Track frame offsets:
#	150
#	19945
#	39012
#	62182
#	85915
#	110692
#	129380
#	149085
#	171360
#	195427
#
# Disc length: 2893 seconds
#
# Revision: 2
# Processed by: cddbd v1.5.2PL0 Copyright (c) Steve Scherf et al.
# Submitted via: EZCDAudioConverter 8.0.2.1
#
DISCID=8a0b4b0a
DTITLE=Chế Linh, Phương Lam - Đối Diện
DYEAR=1998
DGENRE=Contemporary Pop
TTITLE0=Phương Lam - Những chuyến xe trong cuộc đời
TTITLE1=Phương Lam, Chế Linh - Giữa lòng đất mẹ
TTITLE2=Phương Lam - Chuyện tình không dĩ vãng
TTITLE3=Chế Linh - Gác vắng
TTITLE4=Phương Lam - Thư về em gái thành đô
TTITLE5=Phương Lam - Đối Diện
TTITLE6=Phương Lam, Chế Linh - Thị trấn về đêm
TTITLE7=Phương Lam - Linh hồn tượng đá
TTITLE8=Phương Lam - Buồn mà chi em
TTITLE9=Phương Lam - Chiều thương đô thị
EXTD=
EXTT0=
EXTT1=
EXTT2=
EXTT3=
EXTT4=
EXTT5=
EXTT6=
EXTT7=
EXTT8=
EXTT9=
PLAYORDER=
